Coordinates
nRows=10
nColumns=24

# SIMM Motion File Header:
name Coordinates
datacolumns 24
datarows 10
otherdata 1
range 0.68600000000000005000 0.69499999999999995000
endheader
time	pelvis_tx	pelvis_ty	pelvis_tz	pelvis_tilt	pelvis_list	pelvis_rotation	hip_flexion_r	hip_adduction_r	hip_rotation_r	knee_angle_r	ankle_angle_r	subtalar_angle_r	mtp_angle_r	hip_flexion_l	hip_adduction_l	hip_rotation_l	knee_angle_l	ankle_angle_l	subtalar_angle_l	mtp_angle_l	lumbar_extension	lumbar_bending	lumbar_rotation
      0.68600000000000005000	      2.21117566550844560000	      0.86701213744699113000	     -0.24408778608162557000	     -5.19388207503116650000	      3.69036235739903740000	      2.31259959602831300000	     21.48288842641251500000	     -6.43545983493548230000	     -2.62417637001420400000	    -59.82828353786798900000	     -2.86550816108365370000	     -0.00000000000020409167	      0.00000000000043867464	      8.89246605386916580000	      7.35450727412237450000	     11.28402215933935300000	    -17.28306931897950700000	      9.67636074088723850000	      0.00000000000003703194	     -0.00000000000018367522	     -4.61900446742319560000	     -4.40975657613969750000	     -2.35207790236781960000
      0.68700000000000006000	      2.21265647908613520000	      0.86710245668585539000	     -0.24400650553358924000	     -5.20943152820027320000	      3.64396214123185120000	      2.31681605173015550000	     21.69236785660506000000	     -6.38566325171016040000	     -2.69045922193806990000	    -59.76178563127530900000	     -2.68940955467586340000	     -0.00000000000020440090	      0.00000000000043995402	      8.74044265667816230000	      7.30507916136518890000	     11.29800485200196100000	    -17.17159670053488800000	      9.69408146549596590000	      0.00000000000003711434	     -0.00000000000018379129	     -4.60994262081163250000	     -4.35465627092735200000	     -2.38992121112098440000
      0.68800000000000006000	      2.21413765916773910000	      0.86719074081413727000	     -0.24392517296280927000	     -5.22499641737600130000	      3.59766612281423010000	      2.32119530529710480000	     21.90105148254131600000	     -6.33608455528820610000	     -2.75643789508342070000	    -59.69289494505687800000	     -2.51437735381071100000	     -0.00000000000020471457	      0.00000000000044124577	      8.58815382026522300000	      7.25572181215322590000	     11.31314923916640500000	    -17.05930447838262900000	      9.71075303854419400000	      0.00000000000003719656	     -0.00000000000018389525	     -4.60082541114825090000	     -4.29970560874660460000	     -2.42789812327319550000
      0.68900000000000006000	      2.21561993876108730000	      0.86727291961067243000	     -0.24384368432379824000	     -5.24060761457159340000	      3.55168269764530150000	      2.32606295245937340000	     22.10734769570871400000	     -6.28715951927635430000	     -2.82150403189323070000	    -59.61682591996120800000	     -2.34254436957346360000	     -0.00000000000020504155	      0.00000000000044257462	      8.43506866618647950000	      7.20657675357693340000	     11.33177870983633700000	    -16.94455344510745900000	      9.72427715691093830000	      0.00000000000003727825	     -0.00000000000018396291	     -4.59154211232941730000	     -4.24520387566064890000	     -2.46627584562254270000
      0.69000000000000006000	      2.21710221835443510000	      0.86735509840720759000	     -0.24376219568478724000	     -5.25621881176718550000	      3.50569927247637250000	      2.33093059962164250000	     22.31364390887611600000	     -6.23823448326450160000	     -2.88657016870304030000	    -59.54075689486554500000	     -2.17071138533621650000	     -0.00000000000020536854	      0.00000000000044390348	      8.28198351210773790000	      7.15743169500064000000	     11.35040818050627100000	    -16.82980241183229400000	      9.73780127527768080000	      0.00000000000003735994	     -0.00000000000018403057	     -4.58225881351058280000	     -4.19070214257469330000	     -2.50465356797188980000
      0.69100000000000006000	      2.21858584066878930000	      0.86742922135605705000	     -0.24368070108054724000	     -5.27210001286882250000	      3.45985585824755850000	      2.33658597304924380000	     22.51702931137292700000	     -6.18993986033594630000	     -2.95055533226419970000	    -59.45527067589681300000	     -2.00345000960647730000	     -0.00000000000020571212	      0.00000000000044523715	      8.12814880530059190000	      7.10824498391165350000	     11.37387807915375300000	    -16.71202852019743200000	      9.74838422542768510000	      0.00000000000003744123	     -0.00000000000018413368	     -4.57253176335213320000	     -4.13648953027153430000	     -2.54355647697961680000
      0.69199999999999995000	      2.22006946298314340000	      0.86750334430490650000	     -0.24359920647630726000	     -5.28798121397045670000	      3.41401244401874890000	      2.34224134647684410000	     22.72041471386971200000	     -6.14164523740739640000	     -3.01454049582535170000	    -59.36978445692808700000	     -1.83618863387675860000	     -0.00000000000020605569	      0.00000000000044657083	      7.97431409849346460000	      7.05905827282267230000	     11.39734797780123500000	    -16.59425462856258800000	      9.75896717557768770000	      0.00000000000003752252	     -0.00000000000018423679	     -4.56280471319368350000	     -4.08227691796838150000	     -2.58245938598733990000
      0.69299999999999995000	      2.22155410417491470000	      0.86757087238870223000	     -0.24351758565886319000	     -5.30418263864138770000	      3.36827281525071070000	      2.34846002600243420000	     22.92161076569735200000	     -6.09384434902451580000	     -3.07757933064964240000	    -59.27675158372282000000	     -1.67270195861420020000	     -0.00000000000020641839	      0.00000000000044795796	      7.82000546065629990000	      7.00976595130456910000	     11.42464598166075400000	    -16.47410922335655300000	      9.76758424088706430000	      0.00000000000003762166	     -0.00000000000018446795	     -4.55261274059383060000	     -4.02831545466882000000	     -2.62160100313379110000
      0.69399999999999995000	      2.22303908499249170000	      0.86763620218414683000	     -0.24343592277035109000	     -5.32049080450208310000	      3.32256778163626400000	      2.35486647422735460000	     23.12207703396859800000	     -6.04620803882352840000	     -3.14030272256164360000	    -59.18120315910537200000	     -1.51047351684070350000	     -0.00000000000020678747	      0.00000000000044936291	      7.66553884580912910000	      6.96043842631009290000	     11.45322002059095500000	    -16.35317331362679400000	      9.77554601124956330000	      0.00000000000003772675	     -0.00000000000018474179	     -4.54226579384684380000	     -3.97443770770379070000	     -2.66082218965981720000
      0.69499999999999995000	      2.22452440056343060000	      0.86769913898197104000	     -0.24335413870581213000	     -5.33694679486863600000	      3.27693171629438010000	      2.36142320462431950000	     23.32183468536336000000	     -5.99876662557473230000	     -3.20262547154316700000	    -59.08303198971984200000	     -1.34956339386295100000	     -0.00000000000020716266	      0.00000000000045078935	      7.51094974285171710000	      6.91108331739113790000	     11.48305952462956400000	    -16.23141837248693900000	      9.78270410495688840000	      0.00000000000003783659	     -0.00000000000018503936	     -4.53171928199541880000	     -3.92069826627020750000	     -2.70004067013160930000
